<svg xmlns="http://www.w3.org/2000/svg" enable-background="new 0 0 512 512" viewBox="0 0 512 512" id="scooter">
  <circle cx="105.7" cy="376.3" r="55.7" fill="#323d2c"></circle>
  <circle cx="431.3" cy="376.3" r="55.7" fill="#323d2c"></circle>
  <path fill="#1c2617" d="M450.2,409.9c-28.2-1.5-51-24.4-52.5-52.5c0-0.2,0-0.5,0-0.7c-0.4-9.3-13.1-12-17-3.5
			c-3.6,7.8-5.4,16.6-5,25.8c1.3,28.5,24.5,51.7,53,53c9.2,0.4,18-1.4,25.8-5c8.5-3.9,5.8-16.6-3.5-17
			C450.7,409.9,450.5,409.9,450.2,409.9z"></path>
  <circle cx="431.3" cy="376.3" r="31" fill="#747e6c"></circle>
  <path fill="#485143" d="M419.3,376.3c0-10.7,5.4-20.1,13.7-25.7c2.4-1.6,1.2-5.3-1.6-5.3c-0.7,0-1.4,0-2,0.1
			c-15.5,1-28,13.6-28.9,29.1c-1,18,13.2,32.9,31,32.9c0,0,0.1,0,0.1,0c2.8,0,3.9-3.7,1.6-5.3C424.7,396.5,419.3,387,419.3,376.3z"></path>
  <path fill="#1c2617" d="M486.9,373c-0.7-11.2-4.6-21.5-11-30h-89.2c-7,9.3-11.1,20.8-11.1,33.3
			c0,5.4,0.8,10.7,2.3,15.7l0,0c3.9,0,7.6-1.9,9.9-5.1l6.1-8.7c2.3-3.2,6-5.1,9.9-5.1H486.9z"></path>
  <path fill="#485143" d="M403.8,373h58.3c-1.7-16-14.8-27.7-30.8-27.7c-16.2,0-29.4,12.4-30.9,28.2
			C401.5,373.2,402.7,373,403.8,373z"></path>
  <path fill="#c4c1ab" d="M391.6,132.4l-13-34.4H347V88h35c2.1,0,3.9,1.3,4.7,3.2l14.3,37.6L391.6,132.4z"></path>
  <path fill="#1c2617" d="M124.6,409.9c-28.2-1.5-51-24.4-52.5-52.5c0-0.2,0-0.5,0-0.7c-0.4-9.3-13.1-12-17-3.5
			c-3.6,7.8-5.4,16.6-5,25.8c1.3,28.5,24.5,51.7,53,53c9.2,0.4,18-1.4,25.8-5c8.5-3.9,5.8-16.6-3.5-17
			C125,409.9,124.8,409.9,124.6,409.9z"></path>
  <rect width="43.2" height="22.3" x="5" y="256" fill="#b5100b"></rect>
  <path fill="#db3328" d="M5,267.2h10.4c6.2,0,11.2-5,11.2-11.2v0H5V267.2z"></path>
  <circle cx="105.3" cy="376.3" r="31" fill="#747e6c"></circle>
  <path fill="#485143" d="M98.6,396.3c-9.7-11.4-9.7-28.5,0-39.9c0.1-0.1,0.2-0.2,0.3-0.3c3.6-4.2-0.9-10.4-6-8.1
			c-4,1.7-7.6,4.4-10.7,7.9c-10.3,11.6-10.3,29.4,0,41c3.1,3.5,6.8,6.1,10.7,7.9c5.1,2.2,9.6-3.9,6-8.1
			C98.7,396.5,98.6,396.4,98.6,396.3z"></path>
  <path fill="#1c2617" d="M161.3,376.3c0-30.8-24.9-55.7-55.7-55.7c-30.8,0-55.7,24.9-55.7,55.7
			c0,4.7,0.6,9.7,1.7,13.7h108C160.8,386,161.3,381,161.3,376.3z"></path>
  <path fill="#485143" d="M136.3,376.3c0-17.1-13.9-31-31-31c-17.1,0-31,13.9-31,31c0,4.9,1.2,9.7,3.2,13.7h55.6
			C135.2,386,136.3,381.2,136.3,376.3z"></path>
  <path fill="#68a1d6" d="M437,172.7h-90.3v0c0-24.7,20-44.7,44.7-44.7H437V172.7z"></path>
  <path fill="#68a1d6" d="M437,172.7h-90.3v0c0-24.7,20-44.7,44.7-44.7H437V172.7z"></path>
  <rect width="20" height="44.7" x="417" y="128" fill="#c4c1ab"></rect>
  <path fill="#ebeadf" d="M437,158L437,158l0-30h-20v10C417,149,426,158,437,158z"></path>
  <rect width="10" height="36" x="342" y="75" fill="#c4c1ab"></rect>
  <rect width="88" height="10" x="304" y="145" fill="#323d2c"></rect>
  <rect width="143.6" height="34.3" x="212" y="349.7" fill="#68a1d6"></rect>
  <rect width="143.6" height="17.2" x="212" y="349.7" fill="#3179af"></rect>
  <path fill="#323d2c" d="M100,238.2h156v0c0-20.1-15.6-36.7-35.6-38.1l-79.7-5.4c-22-1.5-40.7,16-40.7,38.1V238.2z"></path>
  <path fill="#485143" d="M131,204.1l79.7,5.3c16.8,1.1,30.5,12.7,34.4,28.7H256c0-20-15.6-36.6-35.6-38l-79.7-5.3
			c-13.7-0.9-26.1,5.5-33.5,15.7C114,205.9,122.2,203.5,131,204.1z"></path>
  <path fill="#68a1d6" d="M212,384H5v-50.8c0-52.5,42.5-95,95-95h0h156v31.4l0,0c-27,13.8-44,41.5-44,71.8V384z"></path>
  <path fill="#9ad2fc" d="M113,278.3h31.4c18.5,0,33.6,15,33.6,33.6V384H25v-17.6C25,317.7,64.4,278.3,113,278.3z"></path>
  <path fill="#d7f0ff" d="M144.4,278.3L144.4,278.3c18.5,0,33.6,15,33.6,33.6v54.4h-47.8c-20.4,0-36.9-16.5-36.9-36.9
			v0C93.3,301.2,116.2,278.3,144.4,278.3z"></path>
  <path fill="#68a1d6" d="M507,364.5H355.6V292h78.9C474.5,292,507,324.4,507,364.5L507,364.5z"></path>
  <rect width="61" height="10" x="79" y="313" fill="#68a1d6"></rect>
  <rect width="61" height="10" x="79" y="333" fill="#68a1d6"></rect>
  <rect width="61" height="10" x="79" y="353" fill="#68a1d6"></rect>
  <polygon fill="#3179af" points="369 364.5 421.7 364.5 439.1 292.1 369 292.1"></polygon>
  <path fill="#68a1d6" d="M376.2,384h-56.7l11.7-31.5c21.4-57.4,26.8-119.6,15.4-179.9l0,0H387l52.1,119.5L376.2,384z
			"></path>
  <path fill="#3179af" d="M387 173h-40.3c11.3 60.2 6 122.3-15.4 179.7l-5.3 14.3h0c23.8 0 43.1-19.3 43.1-43.1V218.4c0-14.6 11.8-26.4 26.4-26.4L387 173zM346.7 173L346.7 173c0-.1 0-.1 0-.2V173z"></path>
  <path fill="#1c2617" d="M145,203.5V195l-4.5-0.3c-22-1.5-40.5,16-40.5,38.1v5.2h156c0-5-1.2-11-3.3-15h-88.2
			C153.7,223,145,214.3,145,203.5z"></path>
  <g>
    <path fill="#9ad2fc" d="M416,291.1c-2,0-3.8-1.2-4.6-3.1l-29.5-71.7c-1.1-2.6,0.2-5.5,2.7-6.5
				c2.6-1,5.5,0.2,6.5,2.7l29.5,71.7c1.1,2.6-0.2,5.5-2.7,6.5C417.3,290.9,416.6,291.1,416,291.1z"></path>
  </g>
</svg>
